<svg xmlns="http://www.w3.org/2000/svg" width="1600" height="1000" viewBox="0 0 1600 1000">
<polyline points="0,-200.0 40,-175.4 80,-153.4 120,-136.4 160,-125.8 200,-122.1 240,-124.6 280,-131.8 320,-141.7 360,-151.7 400,-159.8 440,-164.4 480,-164.7 520,-161.0 560,-154.4 600,-147.1 640,-141.1 680,-138.8 720,-141.8 760,-151.2 800,-166.8 840,-187.5 880,-211.4 920,-235.8 960,-258.0 1000,-275.7 1040,-286.9 1080,-291.0 1120,-288.2 1160,-279.7 1200,-267.5 1240,-254.0 1280,-241.7 1320,-232.4 1360,-227.3 1400,-226.7 1440,-229.7 1480,-234.6 1520,-239.4 1560,-241.8 1600,-239.8" fill="none" stroke="#3f77b8" stroke-width="1.4" opacity="0.3"/><polyline points="0,-84.7 40,-75.1 80,-72.5 120,-76.1 160,-84.3 200,-95.1 240,-105.8 280,-114.5 320,-119.5 360,-120.2 400,-116.9 440,-110.9 480,-104.2 520,-98.9 560,-97.5 600,-101.4 640,-111.5 680,-127.7 720,-148.7 760,-172.5 800,-196.6 840,-218.1 880,-234.7 920,-244.8 960,-247.6 1000,-243.5 1040,-233.7 1080,-220.5 1120,-206.3 1160,-193.4 1200,-183.7 1240,-178.3 1280,-177.4 1320,-180.0 1360,-184.6 1400,-188.9 1440,-190.7 1480,-188.2 1520,-180.1 1560,-166.3 1600,-147.5" fill="none" stroke="#2a5da0" stroke-width="1.4" opacity="0.16"/><polyline points="0,-28.1 40,-37.4 80,-49.0 120,-60.5 160,-69.7 200,-75.1 240,-76.2 280,-73.3 320,-67.8 360,-61.6 400,-57.1 440,-56.4 480,-61.1 520,-71.9 560,-88.6 600,-109.8 640,-133.6 680,-157.1 720,-177.8 760,-193.4 800,-202.2 840,-203.6 880,-198.2 920,-187.3 960,-173.1 1000,-158.0 1040,-144.6 1080,-134.5 1120,-128.8 1160,-127.7 1200,-130.1 1240,-134.3 1280,-138.2 1320,-139.5 1360,-136.5 1400,-127.9 1440,-113.8 1480,-95.0 1520,-73.3 1560,-51.2 1600,-31.2" fill="none" stroke="#2a5da0" stroke-width="1.4" opacity="0.16"/><polyline points="0,-15.6 40,-25.3 80,-31.2 120,-32.6 160,-30.1 200,-25.0 240,-19.5 280,-15.6 320,-15.6 360,-21.0 400,-32.4 440,-49.5 480,-70.8 520,-94.3 560,-117.3 600,-137.2 640,-151.6 680,-159.1 720,-159.1 760,-152.3 800,-140.3 840,-125.1 880,-109.3 920,-95.3 960,-84.9 1000,-79.0 1040,-77.6 1080,-79.8 1120,-83.8 1160,-87.3 1200,-88.2 1240,-84.7 1280,-75.8 1320,-61.5 1360,-42.7 1400,-21.4 1440,0.1 1480,19.0 1520,33.1 1560,40.4 1600,40.2" fill="none" stroke="#2a5da0" stroke-width="1.4" opacity="0.16"/><polyline points="0,10.6 40,12.7 80,17.3 120,22.4 160,25.7 200,25.0 240,19.0 280,7.1 320,-10.3 360,-31.7 400,-54.9 440,-77.2 480,-96.1 520,-109.3 560,-115.4 600,-114.0 640,-105.9 680,-92.7 720,-76.5 760,-60.0 800,-45.6 840,-34.9 880,-28.8 920,-27.3 960,-29.3 1000,-33.1 1040,-36.3 1080,-36.8 1120,-33.0 1160,-23.8 1200,-9.4 1240,9.2 1280,30.2 1320,50.9 1360,68.8 1400,81.6 1440,87.5 1480,85.8 1520,76.9 1560,62.1 1600,43.7" fill="none" stroke="#3f77b8" stroke-width="1.4" opacity="0.3"/><polyline points="0,64.0 40,66.7 80,65.5 120,59.0 160,46.6 200,29.0 240,7.7 280,-15.1 320,-36.7 360,-54.5 400,-66.4 440,-71.1 480,-68.4 520,-58.9 560,-44.5 600,-27.5 640,-10.3 680,4.6 720,15.5 760,21.7 800,23.2 840,21.3 880,17.8 920,14.8 960,14.5 1000,18.6 1040,28.0 1080,42.5 1120,60.9 1160,81.3 1200,101.3 1240,118.1 1280,129.5 1320,134.0 1360,130.8 1400,120.5 1440,104.6 1480,85.2 1520,65.0 1560,46.5 1600,31.7" fill="none" stroke="#2a5da0" stroke-width="1.4" opacity="0.16"/><polyline points="0,98.9 40,86.2 80,68.5 120,47.4 160,25.1 200,4.3 240,-12.5 280,-23.1 320,-26.3 360,-22.2 400,-11.4 440,4.2 480,22.1 520,39.8 560,55.1 600,66.2 640,72.4 680,74.0 720,72.1 760,68.7 800,65.9 840,65.8 880,70.1 920,79.6 960,94.0 1000,112.2 1040,132.1 1080,151.1 1120,166.8 1160,176.9 1200,179.9 1240,175.3 1280,163.6 1320,146.6 1360,126.3 1400,105.6 1440,86.7 1480,71.9 1520,62.2 1560,57.8 1600,57.9" fill="none" stroke="#2a5da0" stroke-width="1.4" opacity="0.16"/><polyline points="0,87.3 40,65.6 80,45.7 120,30.1 160,20.9 200,19.0 240,24.7 280,36.7 320,53.4 360,72.1 400,90.4 440,106.0 480,117.2 520,123.4 560,124.9 600,123.0 640,119.6 680,116.9 720,117.0 760,121.5 800,131.0 840,145.3 880,163.1 920,182.3 960,200.5 1000,215.0 1040,223.7 1080,225.2 1120,219.1 1160,206.2 1200,188.0 1240,167.0 1280,145.8 1320,126.8 1360,112.0 1400,102.5 1440,98.4 1480,98.9 1520,102.1 1560,106.0 1600,108.3" fill="none" stroke="#2a5da0" stroke-width="1.4" opacity="0.16"/><polyline points="0,73.2 40,65.4 80,65.0 120,72.1 160,85.4 200,103.1 240,122.6 280,141.4 320,157.2 360,168.5 400,174.6 440,176.0 480,174.0 520,170.5 560,167.9 600,168.1 640,172.6 680,182.1 720,196.2 760,213.6 800,232.1 840,249.3 880,262.5 920,269.8 960,269.9 1000,262.4 1040,248.2 1080,229.1 1120,207.3 1160,185.6 1200,166.5 1240,151.9 1280,142.7 1320,139.1 1360,139.9 1400,143.5 1440,147.6 1480,150.1 1520,149.2 1560,143.8 1600,133.9" fill="none" stroke="#3f77b8" stroke-width="1.4" opacity="0.3"/><polyline points="0,120.1 40,134.6 80,153.3 120,173.6 160,192.8 200,208.7 240,220.0 280,225.9 320,227.1 360,225.0 400,221.4 440,218.7 480,219.0 520,223.5 560,232.9 600,246.7 640,263.6 680,281.4 720,297.5 760,309.5 800,315.4 840,314.0 880,305.2 920,289.8 960,269.6 1000,247.2 1040,225.3 1080,206.1 1120,191.7 1160,183.0 1200,179.8 1240,181.1 1280,185.1 1320,189.5 1360,192.3 1400,191.5 1440,186.4 1480,176.8 1520,163.9 1560,149.3 1600,135.4" fill="none" stroke="#2a5da0" stroke-width="1.4" opacity="0.16"/><polyline points="0,224.9 40,244.4 80,260.5 120,271.6 160,277.3 200,278.3 240,275.9 280,272.2 320,269.4 360,269.6 400,274.1 440,283.3 480,296.8 520,313.2 560,330.1 600,345.2 640,356.0 680,360.5 720,357.6 760,347.4 800,330.8 840,309.8 880,286.9 920,264.7 960,245.6 1000,231.5 1040,223.2 1080,220.6 1120,222.4 1160,226.8 1200,231.7 1240,234.7 1280,234.3 1320,229.4 1360,220.3 1400,207.8 1440,194.0 1480,181.2 1520,171.7 1560,167.7 1600,170.6" fill="none" stroke="#2a5da0" stroke-width="1.4" opacity="0.16"/><polyline points="0,323.4 40,328.8 80,329.4 120,326.8 160,322.8 200,319.9 240,320.0 280,324.3 320,333.4 360,346.5 400,362.2 440,378.3 480,392.3 520,401.8 560,404.9 600,400.7 640,389.1 680,371.5 720,349.7 760,326.2 800,303.9 840,285.0 880,271.3 920,263.6 960,261.5 1000,264.0 1040,268.9 1080,274.2 1120,277.6 1160,277.4 1200,272.9 1240,264.2 1280,252.3 1320,239.3 1360,227.4 1400,219.2 1440,216.5 1480,220.6 1520,232.0 1560,249.7 1600,272.0" fill="none" stroke="#2a5da0" stroke-width="1.4" opacity="0.16"/><polyline points="0,377.5 40,373.3 80,370.2 120,370.0 160,374.2 200,383.0 240,395.7 280,410.8 320,426.0 360,438.9 400,447.1 440,448.8 480,443.2 520,430.4 560,411.7 600,389.2 640,365.4 680,343.0 720,324.3 760,311.2 800,304.1 840,302.7 880,305.8 920,311.3 960,317.0 1000,320.8 1040,321.0 1080,316.8 1120,308.6 1160,297.4 1200,285.1 1240,274.3 1280,267.1 1320,265.7 1360,271.1 1400,283.6 1440,302.2 1480,325.1 1520,349.8 1560,373.7 1600,394.1" fill="none" stroke="#3f77b8" stroke-width="1.4" opacity="0.3"/><polyline points="0,419.8 40,423.7 80,432.2 120,444.4 160,458.8 200,473.1 240,484.9 280,491.8 320,492.1 360,485.2 400,471.2 440,451.6 480,428.4 520,404.3 560,382.0 600,363.7 640,351.1 680,344.7 720,344.1 760,347.9 800,354.0 840,360.3 880,364.5 920,365.0 960,361.3 1000,353.5 1040,342.9 1080,331.5 1120,321.6 1160,315.6 1200,315.4 1240,322.0 1280,335.5 1320,354.9 1360,378.3 1400,403.2 1440,426.9 1480,446.8 1520,461.0 1560,468.7 1600,469.8" fill="none" stroke="#2a5da0" stroke-width="1.4" opacity="0.16"/><polyline points="0,492.6 40,506.3 80,519.7 120,530.3 160,535.9 200,534.9 240,526.7 280,511.6 320,491.1 360,467.4 400,443.1 440,420.9 480,403.1 520,391.2 560,385.6 600,385.8 640,390.3 680,397.2 720,403.9 760,408.6 800,409.6 840,406.2 880,398.9 920,389.0 960,378.4 1000,369.5 1040,364.6 1080,365.5 1120,373.2 1160,387.7 1200,407.9 1240,431.7 1280,456.6 1320,480.0 1360,499.2 1400,512.6 1440,519.3 1480,519.3 1520,514.0 1560,505.3 1600,495.4" fill="none" stroke="#2a5da0" stroke-width="1.4" opacity="0.16"/><polyline points="0,575.2 40,579.5 80,577.3 120,567.8 160,551.7 200,530.4 240,506.2 280,481.9 320,459.9 360,442.7 400,431.5 440,426.7 480,427.8 520,433.2 560,440.7 600,448.1 640,453.2 680,454.6 720,451.7 760,444.9 800,435.6 840,425.8 880,417.8 920,414.0 960,416.1 1000,424.8 1040,440.2 1080,461.0 1120,485.1 1160,510.0 1200,532.9 1240,551.5 1280,563.9 1320,569.5 1360,568.4 1400,562.1 1440,552.4 1480,541.7 1520,532.4 1560,526.3 1600,524.3" fill="none" stroke="#2a5da0" stroke-width="1.4" opacity="0.16"/><polyline points="0,608.5 40,591.4 80,569.5 120,544.9 160,520.6 200,499.0 240,482.4 280,472.0 320,468.2 360,470.2 400,476.4 440,484.7 480,492.6 520,498.2 560,500.1 600,497.6 640,491.3 680,482.7 720,473.7 760,466.7 800,463.9 840,467.0 880,476.7 920,492.9 960,514.2 1000,538.5 1040,563.3 1080,585.7 1120,603.4 1160,614.8 1200,619.2 1240,617.0 1280,609.6 1320,599.0 1360,587.6 1400,577.7 1440,571.1 1480,568.7 1520,570.5 1560,575.5 1600,582.0" fill="none" stroke="#3f77b8" stroke-width="1.4" opacity="0.3"/><polyline points="0,583.5 40,559.3 80,538.2 120,522.3 160,512.8 200,510.0 240,513.0 280,520.1 320,529.1 360,537.7 400,543.8 440,546.1 480,544.0 520,538.3 560,530.2 600,522.0 640,515.9 680,514.1 720,518.2 760,528.9 800,545.7 840,567.5 880,591.9 920,616.4 960,638.2 1000,655.0 1040,665.3 1080,668.6 1120,665.2 1160,656.6 1200,645.1 1240,632.9 1280,622.5 1320,615.4 1360,612.6 1400,614.1 1440,618.6 1480,624.5 1520,629.6 1560,631.4 1600,628.4" fill="none" stroke="#2a5da0" stroke-width="1.4" opacity="0.16"/><polyline points="0,562.4 40,553.9 80,552.2 120,556.2 160,564.3 200,574.1 240,583.3 280,589.9 320,592.6 360,591.0 400,585.7 440,578.3 480,570.8 520,565.6 560,564.7 600,569.7 640,581.2 680,598.7 720,620.8 760,645.2 800,669.3 840,690.4 880,706.3 920,715.4 960,717.4 1000,712.8 1040,703.1 1080,690.6 1120,677.7 1160,666.7 1200,659.2 1240,656.1 1280,657.2 1320,661.4 1360,666.8 1400,671.2 1440,672.4 1480,668.6 1520,659.0 1560,643.6 1600,623.4" fill="none" stroke="#2a5da0" stroke-width="1.4" opacity="0.16"/><polyline points="0,599.9 40,608.9 80,619.5 120,629.3 160,636.5 200,639.6 240,638.4 280,633.6 320,626.8 360,620.0 400,615.6 440,615.6 480,621.5 520,633.7 560,651.7 600,674.1 640,698.4 680,722.0 720,742.4 760,757.2 800,765.1 840,765.7 880,759.9 920,749.1 960,735.7 1000,722.0 1040,710.5 1080,702.6 1120,699.1 1160,699.9 1200,703.7 1240,708.7 1280,712.5 1320,713.1 1360,708.8 1400,698.7 1440,682.9 1480,662.7 1520,639.9 1560,617.3 1600,597.4" fill="none" stroke="#2a5da0" stroke-width="1.4" opacity="0.16"/><polyline points="0,675.9 40,683.5 80,687.1 120,686.3 160,681.9 200,675.6 240,669.5 280,665.9 320,666.7 360,673.4 400,686.3 440,704.8 480,727.2 520,751.4 560,774.5 600,793.9 640,807.6 680,814.2 720,813.5 760,806.4 800,794.5 840,780.1 880,765.8 920,753.7 960,745.5 1000,741.8 1040,742.3 1080,745.8 1120,750.3 1160,753.7 1200,753.8 1240,748.9 1280,738.4 1320,722.3 1360,702.1 1400,679.7 1440,657.7 1480,638.8 1520,625.3 1560,618.7 1600,619.6" fill="none" stroke="#3f77b8" stroke-width="1.4" opacity="0.3"/><polyline points="0,734.6 40,730.7 80,724.9 120,719.4 160,716.5 200,718.1 240,725.5 280,738.9 320,757.8 360,780.3 400,804.1 440,826.6 480,845.0 520,857.5 560,862.8 600,860.8 640,852.4 680,839.4 720,824.1 760,809.1 800,796.6 840,788.0 880,784.1 920,784.4 960,787.6 1000,791.8 1040,794.7 1080,794.3 1120,789.0 1160,778.1 1200,761.9 1240,741.8 1280,719.8 1320,698.6 1360,680.7 1400,668.5 1440,663.3 1480,665.7 1520,675.0 1560,689.8 1600,707.6" fill="none" stroke="#2a5da0" stroke-width="1.4" opacity="0.16"/><polyline points="0,769.6 40,767.4 80,769.7 120,777.7 160,791.6 200,810.7 240,833.2 280,856.6 320,878.3 360,895.7 400,906.9 440,910.9 480,907.5 520,897.8 560,883.7 600,867.5 640,851.9 680,838.9 720,830.1 760,826.0 800,826.1 840,829.1 880,833.1 920,835.6 960,834.8 1000,829.1 1040,818.0 1080,801.7 1120,781.7 1160,760.3 1200,739.9 1240,723.1 1280,712.2 1320,708.5 1360,712.3 1400,723.0 1440,738.9 1480,757.7 1520,776.7 1560,793.6 1600,806.5" fill="none" stroke="#2a5da0" stroke-width="1.4" opacity="0.16"/><polyline points="0,829.9 40,844.2 80,863.5 120,885.8 160,908.7 200,929.6 240,946.0 280,955.9 320,958.4 360,953.6 400,942.6 440,927.4 480,910.5 520,894.2 560,880.9 600,871.9 640,867.6 680,867.6 720,870.5 760,874.2 800,876.5 840,875.3 880,869.3 920,858.0 960,841.7 1000,822.1 1040,801.2 1080,781.6 1120,766.1 1160,756.5 1200,754.3 1240,759.5 1280,771.6 1320,788.6 1360,808.2 1400,827.8 1440,844.9 1480,857.9 1520,865.7 1560,868.6 1600,867.5" fill="none" stroke="#2a5da0" stroke-width="1.4" opacity="0.16"/><polyline points="0,938.2 40,960.5 80,980.5 120,995.7 160,1004.2 200,1005.3 240,999.1 280,986.9 320,970.6 360,952.9 400,936.1 440,922.5 480,913.3 520,909.0 560,909.0 600,911.7 640,915.3 680,917.3 720,915.9 760,909.7 800,898.2 840,882.1 880,862.7 920,842.5 960,823.9 1000,809.6 1040,801.4 1080,800.6 1120,807.3 1160,820.7 1200,838.7 1240,859.1 1280,879.2 1320,896.6 1360,909.5 1400,917.2 1440,919.8 1480,918.5 1520,915.1 1560,911.8 1600,910.8" fill="none" stroke="#3f77b8" stroke-width="1.4" opacity="0.3"/><polyline points="0,1044.9 40,1052.0 80,1051.7 120,1044.1 160,1030.6 200,1013.3 240,994.8 280,977.6 320,963.7 360,954.4 400,950.1 440,950.1 480,952.8 520,956.3 560,958.2 600,956.6 640,950.2 680,938.7 720,922.7 760,903.8 800,884.3 840,866.7 880,853.6 920,846.9 960,847.6 1000,855.7 1040,870.3 1080,889.4 1120,910.5 1160,930.9 1200,948.4 1240,961.3 1280,968.7 1320,971.1 1360,969.5 1400,965.9 1440,962.4 1480,961.3 1520,964.2 1560,971.7 1600,983.7" fill="none" stroke="#2a5da0" stroke-width="1.4" opacity="0.16"/><polyline points="0,1088.4 40,1073.7 80,1055.5 120,1036.3 160,1018.7 200,1004.6 240,995.3 280,991.1 320,991.1 360,993.9 400,997.3 440,999.1 480,997.4 520,990.9 560,979.5 600,963.7 640,945.3 680,926.6 720,910.1 760,898.3 800,893.0 840,895.1 880,904.7 920,920.4 960,940.5 1000,962.2 1040,983.0 1080,1000.5 1120,1013.2 1160,1020.4 1200,1022.3 1240,1020.4 1280,1016.5 1320,1012.9 1360,1011.6 1400,1014.3 1440,1021.7 1480,1033.3 1520,1048.1 1560,1064.0 1600,1078.5" fill="none" stroke="#2a5da0" stroke-width="1.4" opacity="0.16"/><polyline points="0,1077.4 40,1059.4 80,1045.2 120,1036.0 160,1031.9 200,1032.1 240,1035.0 280,1038.4 320,1040.2 360,1038.4 400,1031.9 440,1020.6 480,1005.1 520,987.3 560,969.4 600,954.0 640,943.5 680,939.6 720,943.2 760,954.1 800,971.1 840,992.0 880,1014.3 920,1035.3 960,1052.8 1000,1065.2 1040,1072.0 1080,1073.5 1120,1071.1 1160,1066.9 1200,1063.0 1240,1061.6 1280,1064.1 1320,1071.2 1360,1082.5 1400,1096.7 1440,1111.7 1480,1125.1 1520,1134.5 1560,1138.0 1600,1134.2" fill="none" stroke="#2a5da0" stroke-width="1.4" opacity="0.16"/><polyline points="0,1076.5 40,1072.6 80,1073.0 120,1076.1 160,1079.6 200,1081.4 240,1079.6 280,1073.2 320,1062.1 360,1047.0 400,1029.8 440,1012.8 480,998.5 520,989.3 560,986.9 600,991.9 640,1004.1 680,1022.1 720,1043.9 760,1066.6 800,1087.8 840,1105.2 880,1117.3 920,1123.5 960,1124.5 1000,1121.7 1040,1117.1 1080,1112.9 1120,1111.2 1160,1113.5 1200,1120.2 1240,1131.1 1280,1144.7 1320,1158.9 1360,1171.3 1400,1179.4 1440,1181.5 1480,1176.4 1520,1164.2 1560,1145.8 1600,1123.2" fill="none" stroke="#3f77b8" stroke-width="1.4" opacity="0.3"/><polyline points="0,1117.3 40,1120.9 80,1122.8 120,1121.1 160,1114.8 200,1103.9 240,1089.3 280,1072.7 320,1056.7 360,1043.6 400,1035.7 440,1034.7 480,1041.1 520,1054.6 560,1073.7 600,1096.1 640,1119.2 680,1140.5 720,1157.6 760,1169.3 800,1175.0 840,1175.4 880,1172.1 920,1167.0 960,1162.4 1000,1160.5 1040,1162.4 1080,1168.9 1120,1179.3 1160,1192.2 1200,1205.5 1240,1216.8 1280,1223.8 1320,1224.5 1360,1218.2 1400,1204.8 1440,1185.5 1480,1162.3 1520,1137.7 1560,1114.6 1600,1095.3" fill="none" stroke="#2a5da0" stroke-width="1.4" opacity="0.16"/><polyline points="0,1162.9 40,1156.8 80,1146.2 120,1132.1 160,1116.2 200,1101.1 240,1089.2 280,1082.7 320,1083.1 360,1090.9 400,1105.5 440,1125.6 480,1148.6 520,1172.1 560,1193.3 600,1210.1 640,1221.3 680,1226.4 720,1226.1 760,1222.2 800,1216.6 840,1211.6 880,1209.3 920,1211.0 960,1217.0 1000,1226.9 1040,1239.1 1080,1251.6 1120,1261.8 1160,1267.6 1200,1267.1 1240,1259.5 1280,1245.0 1320,1224.8 1360,1201.1 1400,1176.4 1440,1153.5 1480,1134.7 1520,1121.7 1560,1115.2 1600,1114.9" fill="none" stroke="#2a5da0" stroke-width="1.4" opacity="0.16"/>
</svg>